<svg xmlns="http://www.w3.org/2000/svg" xmlns:xlink="http://www.w3.org/1999/xlink" version="1.0" x="0px" y="0px" viewBox="0 0 100 125" enable-background="new 0 0 100 100" xml:space="preserve"><path d="M66.035,45l0.732-0.732c0.613-0.612,0.864-1.499,0.666-2.342c-0.199-0.844-0.821-1.523-1.643-1.798l-7.5-2.5  c-0.9-0.299-1.889-0.065-2.559,0.604c-0.67,0.669-0.903,1.66-0.604,2.559l2.5,7.5c0.274,0.821,0.954,1.443,1.798,1.643  C59.616,49.979,59.809,50,60,50c0.655,0,1.294-0.258,1.768-0.732l0.731-0.731l0.732,0.732c0.488,0.488,1.129,0.732,1.769,0.732  c0.64,0,1.279-0.244,1.768-0.731c0.977-0.977,0.977-2.56,0.001-3.536L66.035,45z M10,50h5v2.5c0,1.381,1.119,2.5,2.5,2.5h5v2.5  c0,1.381,1.119,2.5,2.5,2.5h50c1.381,0,2.5-1.119,2.5-2.5V55h5c1.381,0,2.5-1.119,2.5-2.5V50h5c1.381,0,2.5-1.119,2.5-2.5V25  c0-1.381-1.119-2.5-2.5-2.5h-5V20c0-1.381-1.119-2.5-2.5-2.5h-5V15c0-1.381-1.119-2.5-2.5-2.5H25c-1.381,0-2.5,1.119-2.5,2.5v2.5h-5  c-1.381,0-2.5,1.119-2.5,2.5v2.5h-5c-1.381,0-2.5,1.119-2.5,2.5v22.5C7.5,48.881,8.619,50,10,50z M85,27.5h2.5V45H85V27.5z   M77.5,22.5H80V50h-2.5V22.5z M27.5,17.5h45V25h-45V17.5z M27.5,30h45v25h-45V30z M20,22.5h2.5V50H20V22.5z M12.5,27.5H15V45h-2.5  V27.5z M97.5,5h-95C1.119,5,0,6.119,0,7.5V75c0,1.381,1.119,2.5,2.5,2.5H35v5c0,4.136-3.364,7.5-7.5,7.5c-1.381,0-2.5,1.119-2.5,2.5  s1.119,2.5,2.5,2.5h45c1.381,0,2.5-1.119,2.5-2.5S73.881,90,72.5,90c-4.136,0-7.5-3.364-7.5-7.5v-5h32.5c1.381,0,2.5-1.119,2.5-2.5  V7.5C100,6.119,98.881,5,97.5,5z M37.494,90C39.066,87.909,40,85.312,40,82.5v-5h20v5c0,2.812,0.934,5.409,2.506,7.5H37.494z   M95,72.5H5v-5h90V72.5z M95,62.5H5V10h90V62.5z M47.5,32.499h-15c-1.381,0-2.5,1.119-2.5,2.5v15c0,1.381,1.119,2.5,2.5,2.5h15  c1.381,0,2.5-1.119,2.5-2.5v-15C50,33.618,48.881,32.499,47.5,32.499z M45,47.499H35v-10h10V47.499z M47.5,19.25  c-1.105,0-2,0.896-2,2s0.895,2,2,2c1.104,0,2-0.896,2-2S48.604,19.25,47.5,19.25z M32.5,19.25c-1.105,0-2,0.896-2,2s0.895,2,2,2  c1.104,0,2-0.896,2-2S33.604,19.25,32.5,19.25z M40,19.25c-1.105,0-2,0.896-2,2s0.895,2,2,2c1.104,0,2-0.896,2-2  S41.104,19.25,40,19.25z"/></svg>