<svg xmlns="http://www.w3.org/2000/svg" xmlns:xlink="http://www.w3.org/1999/xlink" version="1.1" x="0px" y="0px" viewBox="0 0 100 125" enable-background="new 0 0 100 100" xml:space="preserve"><path d="M89.2,27.1H58.399c-1.118,0-1.899,0.781-1.899,1.9v22.4c0,1.118,0.781,1.899,1.899,1.899H89.2c1.119,0,1.9-0.781,1.9-1.899  V29C91.101,27.881,90.319,27.1,89.2,27.1z M87.3,49.5h-27V30.9h27V49.5z M17.801,68.699c1.118,0,1.899-0.781,1.899-1.899  S18.919,64.9,17.801,64.9c-1.119,0-1.9,0.781-1.9,1.899S16.682,68.699,17.801,68.699z M23.4,68.699c1.119,0,1.9-0.781,1.9-1.899  S24.52,64.9,23.4,64.9s-1.9,0.781-1.9,1.899S22.281,68.699,23.4,68.699z M23.4,63.1c1.119,0,1.9-0.781,1.9-1.9  c0-1.118-0.781-1.899-1.9-1.899s-1.9,0.781-1.9,1.899C21.5,62.318,22.281,63.1,23.4,63.1z M29,68.699c1.119,0,1.9-0.781,1.9-1.899  S30.119,64.9,29,64.9c-1.118,0-1.899,0.781-1.899,1.899S27.882,68.699,29,68.699z M33.2,80.3h-19.6c-1.119,0-1.9,0.781-1.9,1.899  c0,1.119,0.781,1.9,1.9,1.9h19.6c1.119,0,1.9-0.781,1.9-1.9C35.101,81.081,34.319,80.3,33.2,80.3z M23.4,74.3  c1.119,0,1.9-0.781,1.9-1.899c0-1.119-0.781-1.9-1.9-1.9s-1.9,0.781-1.9,1.9C21.5,73.519,22.281,74.3,23.4,74.3z M62.601,47.7  c0.542,0,1.809-0.087,2.797-0.819c0.716,0.544,1.656,0.819,2.803,0.819c0.541,0,1.808-0.087,2.797-0.819  c0.716,0.544,1.656,0.819,2.803,0.819c0.541,0,1.808-0.087,2.798-0.819c0.715,0.544,1.655,0.819,2.802,0.819  c0.542,0,1.809-0.087,2.798-0.819C82.913,47.425,83.854,47.7,85,47.7c1.118,0,1.899-0.781,1.899-1.9c0-1.44-1.07-1.708-1.778-1.885  c-0.758-0.189-1.021-0.287-1.021-0.915c0-1.119-0.781-1.9-1.9-1.9c-1.449,0-1.747,1.086-1.944,1.804  c-0.207,0.754-0.319,0.997-0.856,0.997c-0.627,0-0.725-0.263-0.914-1.021c-0.177-0.709-0.444-1.779-1.885-1.779  c-1.449,0-1.748,1.086-1.945,1.805C74.448,43.657,74.337,43.9,73.8,43.9c-0.627,0-0.725-0.263-0.914-1.021  C72.708,42.171,72.44,41.1,71,41.1s-1.708,1.071-1.886,1.779C68.925,43.638,68.827,43.9,68.2,43.9s-0.725-0.263-0.915-1.021  C67.108,42.17,66.84,41.1,65.399,41.1s-1.708,1.07-1.885,1.779c-0.189,0.759-0.287,1.021-0.914,1.021c-1.119,0-1.9,0.781-1.9,1.899  C60.7,46.919,61.481,47.7,62.601,47.7z M82.2,39.301c1.819,0,3.3-1.481,3.3-3.301c0-1.819-1.48-3.3-3.3-3.3  c-1.82,0-3.301,1.48-3.301,3.3C78.899,37.82,80.38,39.301,82.2,39.301z M23.4,13.1c-7.995,0-14.5,6.505-14.5,14.5  s6.505,14.5,14.5,14.5s14.5-6.504,14.5-14.5S31.396,13.1,23.4,13.1z M23.4,38.301c-5.9,0-10.7-4.8-10.7-10.701  c0-5.9,4.8-10.7,10.7-10.7c5.899,0,10.7,4.8,10.7,10.7C34.101,33.5,29.3,38.301,23.4,38.301z M23.4,18.7c-4.907,0-8.9,3.993-8.9,8.9  c0,1.119,0.781,1.9,1.9,1.9s1.9-0.781,1.9-1.9c0-2.812,2.287-5.1,5.1-5.1c1.119,0,1.9-0.781,1.9-1.9S24.52,18.7,23.4,18.7z   M87.8,18.7h-28c-6.284,0-11.427,4.979-11.688,11.2h-1.811v-2.3c0-12.627-10.273-22.9-22.9-22.9S0.501,14.973,0.501,27.6v56  c0,6.451,5.248,11.7,11.699,11.7h22.4c6.451,0,11.7-5.249,11.7-11.7V50.5h1.811c0.262,6.22,5.404,11.199,11.688,11.199h28  c6.451,0,11.699-5.248,11.699-11.699V30.4C99.499,23.949,94.251,18.7,87.8,18.7z M42.5,83.6c0,4.356-3.544,7.9-7.899,7.9H12.2  c-4.355,0-7.899-3.544-7.899-7.9V40.2c4.159,6.396,11.318,10.3,19.1,10.3c7.787,0,14.804-3.832,19.1-10.338V83.6z M23.4,46.7  c-10.532,0-19.1-8.568-19.1-19.1S12.868,8.5,23.4,8.5c10.531,0,19.1,8.568,19.1,19.1S33.932,46.7,23.4,46.7z M48.101,46.7h-1.8v-13  h1.8V46.7z M95.7,50c0,4.356-3.544,7.9-7.9,7.9h-28c-4.356,0-7.9-3.544-7.9-7.9V30.4c0-4.356,3.544-7.9,7.9-7.9h28  c4.356,0,7.9,3.544,7.9,7.9V50z"/></svg>