<svg xmlns="http://www.w3.org/2000/svg" xmlns:xlink="http://www.w3.org/1999/xlink" version="1.1" x="0px" y="0px" viewBox="0 0 100 125" enable-background="new 0 0 100 100" xml:space="preserve"><g><path d="M52.8,78.501c1.119,0,1.9-0.781,1.9-1.9s-0.781-1.9-1.9-1.9c-1.118,0-1.899,0.781-1.899,1.9S51.682,78.501,52.8,78.501z"/><path d="M48.1,82.2c0,1.119,0.781,1.9,1.9,1.9c1.119,0,1.9-0.781,1.9-1.9s-0.781-1.9-1.9-1.9C48.881,80.3,48.1,81.081,48.1,82.2z"/><path d="M47.2,78.501c1.119,0,1.9-0.781,1.9-1.9s-0.781-1.9-1.9-1.9c-1.119,0-1.9,0.781-1.9,1.9S46.081,78.501,47.2,78.501z"/><path d="M42.5,82.2c0,1.119,0.781,1.9,1.9,1.9s1.9-0.781,1.9-1.9s-0.781-1.9-1.9-1.9S42.5,81.081,42.5,82.2z"/><path d="M53.7,82.2c0,1.119,0.781,1.9,1.899,1.9c1.119,0,1.9-0.781,1.9-1.9s-0.781-1.9-1.9-1.9C54.481,80.3,53.7,81.081,53.7,82.2z   "/><path d="M47.2,85.9H36c-1.119,0-1.9,0.781-1.9,1.899c0,1.119,0.781,1.9,1.9,1.9h11.2c1.119,0,1.9-0.781,1.9-1.9   C49.1,86.682,48.319,85.9,47.2,85.9z"/><path d="M52.8,85.9c-1.118,0-1.899,0.781-1.899,1.899c0,1.119,0.781,1.9,1.899,1.9c1.119,0,1.9-0.781,1.9-1.9   C54.7,86.682,53.919,85.9,52.8,85.9z"/><path d="M58.4,85.9c-1.119,0-1.9,0.781-1.9,1.899c0,1.119,0.781,1.9,1.9,1.9c1.118,0,1.899-0.781,1.899-1.9   C60.3,86.682,59.519,85.9,58.4,85.9z"/><path d="M30.4,85.9c-1.119,0-1.9,0.781-1.9,1.899c0,1.119,0.781,1.9,1.9,1.9c1.119,0,1.9-0.781,1.9-1.9   C32.3,86.682,31.519,85.9,30.4,85.9z"/><path d="M41.6,78.501c1.119,0,1.9-0.781,1.9-1.9s-0.781-1.9-1.9-1.9s-1.9,0.781-1.9,1.9S40.481,78.501,41.6,78.501z"/><path d="M58.4,78.501c1.118,0,1.899-0.781,1.899-1.9s-0.781-1.9-1.899-1.9c-1.119,0-1.9,0.781-1.9,1.9S57.281,78.501,58.4,78.501z"/><path d="M30.4,78.501c1.119,0,1.9-0.781,1.9-1.9s-0.781-1.9-1.9-1.9c-1.119,0-1.9,0.781-1.9,1.9S29.281,78.501,30.4,78.501z"/><path d="M57,43.9H45.8c-1.119,0-1.9,0.781-1.9,1.899c0,1.119,0.781,1.9,1.9,1.9H57c1.119,0,1.9-0.781,1.9-1.9   C58.9,44.682,58.119,43.9,57,43.9z"/><path d="M64,69.101H19.2c-1.82,0-3.3,1.48-3.3,3.3v19.601c0,1.819,1.48,3.299,3.3,3.299H64c1.819,0,3.301-1.479,3.301-3.299V72.4   C67.301,70.581,65.819,69.101,64,69.101z M63.5,72.9v18.601H19.7V72.9H63.5z"/><path d="M58.9,13.101H24.3v26.2h34.6V13.101z M28.1,35.501V16.9h27v18.601H28.1z"/><path d="M80.801,73.3h-0.9V50.001c0-3.364-2.736-6.101-6.1-6.101H71c-1.119,0-1.9,0.781-1.9,1.899c0,1.119,0.781,1.9,1.9,1.9h2.801   c1.268,0,2.299,1.032,2.299,2.301V73.3h-0.9c-1.818,0-3.299,1.48-3.299,3.301V87.8c0,1.82,1.48,3.301,3.299,3.301h5.602   c1.818,0,3.299-1.48,3.299-3.301V76.601C84.1,74.78,82.619,73.3,80.801,73.3z M80.301,77.101V87.3h-4.602V77.101H80.301z"/><path d="M36.9,82.2c0,1.119,0.781,1.9,1.9,1.9c1.119,0,1.9-0.781,1.9-1.9s-0.781-1.9-1.9-1.9C37.681,80.3,36.9,81.081,36.9,82.2z"/><path d="M61.199,4.7H22c-3.364,0-6.1,2.736-6.1,6.101v39.2c0,3.195,2.47,5.824,5.6,6.079v2.32c0,3.364,2.736,6.101,6.1,6.101h28   c3.363,0,6.1-2.736,6.1-6.101v-2.32c3.131-0.255,5.602-2.884,5.602-6.079v-39.2C67.301,7.437,64.563,4.7,61.199,4.7z M55.6,60.7   h-28c-1.268,0-2.3-1.031-2.3-2.3v-2.3h32.6v2.3C57.9,59.669,56.868,60.7,55.6,60.7z M19.7,10.801C19.7,9.532,20.732,8.5,22,8.5   h39.199c1.269,0,2.301,1.032,2.301,2.301v39.2c0,1.268-1.032,2.299-2.301,2.299H22c-1.268,0-2.3-1.031-2.3-2.299V10.801z"/><path d="M36,78.501c1.119,0,1.9-0.781,1.9-1.9s-0.781-1.9-1.9-1.9s-1.9,0.781-1.9,1.9S34.881,78.501,36,78.501z"/><path d="M31.3,82.2c0,1.119,0.781,1.9,1.9,1.9s1.9-0.781,1.9-1.9s-0.781-1.9-1.9-1.9S31.3,81.081,31.3,82.2z"/><path d="M25.7,82.2c0,1.119,0.781,1.9,1.9,1.9s1.9-0.781,1.9-1.9s-0.781-1.9-1.9-1.9S25.7,81.081,25.7,82.2z"/><path d="M24.8,89.7c1.119,0,1.9-0.781,1.9-1.9c0-1.118-0.781-1.899-1.9-1.899c-1.119,0-1.9,0.781-1.9,1.899   C22.9,88.919,23.681,89.7,24.8,89.7z"/><path d="M24.8,78.501c1.119,0,1.9-0.781,1.9-1.9s-0.781-1.9-1.9-1.9c-1.119,0-1.9,0.781-1.9,1.9S23.681,78.501,24.8,78.501z"/></g></svg>