<?xml version="1.0" encoding="utf-8"?>
<!-- Generator: Adobe Illustrator 17.1.0, SVG Export Plug-In . SVG Version: 6.00 Build 0)  -->
<!DOCTYPE svg PUBLIC "-//W3C//DTD SVG 1.1//EN" "http://www.w3.org/Graphics/SVG/1.1/DTD/svg11.dtd">
<svg version="1.1" id="Layer_2" xmlns="http://www.w3.org/2000/svg" xmlns:xlink="http://www.w3.org/1999/xlink" x="0px" y="0px"
	 viewBox="258.1 0 443.9 560" enable-background="new 258.1 0 443.9 560" xml:space="preserve">
<g>
	<g>
		<path stroke="#000000" stroke-width="0.432" stroke-miterlimit="10" d="M469.2,233.3h-67.8c-4.1,0-7.7-3.6-7.7-8.1v-71.4
			c0-4.5,3.6-8.1,7.7-8.1h67.8c4.1,0,7.7,3.6,7.7,8.1v71.4C476.9,229.7,473.2,233.3,469.2,233.3z M409,217h52.4v-55.6H409V217z"/>
	</g>
	<path stroke="#000000" stroke-width="0.432" stroke-miterlimit="10" d="M661.3,101.3h-27.1V85.5c0-4.5-3.6-7.7-7.7-7.7h-25.3V62
		c0-4.5-3.6-7.7-7.7-7.7h-0.9H367.9H367c-4.1,0-7.7,3.6-7.7,7.7v15.4H334c-4.1,0-7.7,3.6-7.7,7.7v15.8h-27.1c-4.1,0-7.7,3.6-7.7,7.7
		v104c0,4.5,3.6,7.7,7.7,7.7h27.1v15.4c0,4.5,3.6,7.7,7.7,7.7h25.3v15.8c0,4.5,3.6,7.7,7.7,7.7h0.9h224.7h0.9c4.1,0,7.7-3.6,7.7-7.7
		v-15.8h25.3c4.1,0,7.7-3.6,7.7-7.7v-15.4h27.1c4.1,0,7.7-3.6,7.7-7.7v-104C669,104.5,665.4,101.3,661.3,101.3z M325.9,205.3h-19.4
		v-88.2h19.4V205.3z M358.9,228.3h-17.6V213V109V93.2h17.6V228.3z M375.6,85V69.6h209.3V85v23.5v3.2H375.6v-3.2V85z M584.5,251.8
		H375.1V236V128h209.3v108V251.8z M618.8,109v104v15.4h-17.6V93.2h17.6V109z M653.6,205.3h-19.4v-88.2h19.4V205.3z"/>
	<ellipse stroke="#000000" stroke-width="0.432" stroke-miterlimit="10" cx="401.4" cy="91.8" rx="8.1" ry="8.1"/>
	<ellipse stroke="#000000" stroke-width="0.432" stroke-miterlimit="10" cx="435.3" cy="91.8" rx="8.1" ry="8.1"/>
	<ellipse stroke="#000000" stroke-width="0.432" stroke-miterlimit="10" cx="469.2" cy="91.8" rx="8.1" ry="8.1"/>
	<path d="M555.1,209.3L555.1,209.3l-5.9-5.9l7.2-7.7c0.5-0.5,0.5-0.5,0.9-0.9l0,0l0,0c0.9-1.4,1.8-3.2,1.8-5c0-3.6-2.3-6.3-5.4-7.7
		l0,0l-39.8-14l0,0c-0.9-0.5-1.4-0.5-2.3-0.5c-4.5,0-8.1,3.6-8.1,8.1c0,0.5,0,1.4,0,1.8v0.5l0,0l14,40.2l0,0
		c0.9,3.2,4.1,5.9,7.7,5.9c2.3,0,4.5-0.9,5.9-2.7l6.3-6.8l7.2,6.8l0,0c1.4,0.9,3.2,1.8,5,1.8c4.5,0,8.1-3.6,8.1-8.1
		C558.2,213,556.9,210.7,555.1,209.3z"/>
	<path stroke="#000000" stroke-width="0.432" stroke-miterlimit="10" d="M694.3,19H265.7c-4.1,0-7.7,3.6-7.7,7.7v312.8
		c0,4.5,3.6,7.7,7.7,7.7h149.6v29.4c0,3.2-0.9,32.6-39.3,35.3c-4.5,0.5-7.7,4.1-7.7,8.6s3.6,8.1,8.1,8.1h103.1h1.4H584
		c4.5,0,8.1-3.6,8.1-8.1s-3.2-8.1-7.7-8.6c-38-2.7-39.3-32.1-39.3-35.3v-29.4h149.2c4.1,0,7.7-3.6,7.7-7.7V26.7
		C702,22.2,698.4,19,694.3,19z M543.3,411.9H417.2c10.9-10.9,14.5-25.3,14.5-35.3v-29.4h97.2v29.4C528.9,387,532.5,401,543.3,411.9z
		 M686.6,331.9H273.4v-30.3h413.2V331.9z M686.6,285.7H273.4V34.8h413.2V285.7z"/>
</g>
</svg>
